<?xml version="1.0" encoding="iso-8859-1"?>
<!-- Generator: Adobe Illustrator 19.0.0, SVG Export Plug-In . SVG Version: 6.00 Build 0)  -->
<svg version="1.1" id="Capa_1" xmlns="http://www.w3.org/2000/svg" xmlns:xlink="http://www.w3.org/1999/xlink" x="0px" y="0px"
	 viewBox="0 0 512 512" style="fill: #fff" xml:space="preserve">
<g>
	<g>
		<path d="M373.333,256h-32v-85.333C364.854,170.667,384,151.531,384,128V42.667C384,19.103,364.898,0,341.333,0H170.667
			C147.103,0,128,19.103,128,42.667V128c0,23.531,19.146,42.667,42.667,42.667V256h-32c-17.646,0-32,14.354-32,32s14.354,32,32,32
			h10.667v181.333c0,5.891,4.776,10.667,10.667,10.667h21.333c5.891,0,10.667-4.776,10.667-10.667V320h128v181.333
			c0,5.891,4.776,10.667,10.667,10.667H352c5.891,0,10.667-4.776,10.667-10.667V320h10.667c17.646,0,32-14.354,32-32
			S390.979,256,373.333,256z M298.667,256h-85.333v-85.333h85.333V256z"/>
	</g>
</g>
</svg>
