<svg xmlns="http://www.w3.org/2000/svg" viewBox="0 0 444 293.19">
  <defs>
    <style>
      .cls-3{fill:#658449}.cls-4{fill:#789d53}.cls-5{fill:#2d2d2d}.cls-9{fill:#fff}.cls-10{fill:#e2b591}.cls-11{fill:#efc7a4}.cls-14{fill:#e84044}.cls-15{fill:#e83e45}.cls-18{fill:#305970}.cls-19{fill:#e5bd99}.cls-24{fill:#0e303d}.cls-25{fill:#2e586e}.cls-26{fill:#f1f2f2}.cls-27{fill:#30596f}.cls-37,.cls-38{letter-spacing:-.04em}.cls-39{fill:#ccb242}
    </style>
  </defs>
  <g id="background">
    <path fill="#e8e8e8" d="M0 0h444v293.19H0z"/>
    <path d="M313.23 370.23l-15.14-5.29a23.65 23.65 0 0 0-30.37 15.2l-4 12.54-3.9 2.92v-26.19a10.43 10.43 0 0 1 4.65-8.68l-2-3a14 14 0 0 0-6.26 11.71V373l-2.36-2.36-2.57 2.58 4.93 4.92v40l-3.64-1.82v-3.74a28.47 28.47 0 0 0-37.48-27l-8.58 2.86a1.82 1.82 0 0 0 0 3.45l1.95.65a83.22 83.22 0 0 1 25.73 14l15.42 12.33a1.59 1.59 0 0 0 .34.18l6.28 3.14v4.33h3.63v-26.37l6.55-4.91a1.64 1.64 0 0 0 .22-.14 73.5 73.5 0 0 1 42.66-20.87l3.58-.45a1.82 1.82 0 0 0 .38-3.52z" transform="translate(-195.69 -201.41)" fill="#8bbb65"/>
    <path class="cls-3" d="M275.27 332.78l-.85-13.7a1.81 1.81 0 0 0-1.56-1.69 1.84 1.84 0 0 0-2 1.19L265 335.05a56.9 56.9 0 0 0-3.33 19.17v5a1.82 1.82 0 0 0 1.13 1.68 1.8 1.8 0 0 0 2-.39 36 36 0 0 0 10.47-27.73zM232.45 341.49l-12-4a1.83 1.83 0 0 0-2.35 2.13l2 9a31.94 31.94 0 0 0 31.35 25.14h1.18a1.83 1.83 0 0 0 1.82-1.82 32.07 32.07 0 0 0-22-30.45z" transform="translate(-195.69 -201.41)"/>
    <path class="cls-4" d="M241.4 365.76a46.47 46.47 0 0 1-16.57-17.55l-5.74-10.66a1.78 1.78 0 0 0-1 2.05l2 9a31.93 31.93 0 0 0 31.35 25.15h1.18a1.77 1.77 0 0 0 1.12-.43zM280.27 378.68a26.4 26.4 0 0 0-8.77 10.75l-.84 1.9a73.55 73.55 0 0 1 38.61-17.13l3.47-.43h-17.13a26.38 26.38 0 0 0-15.34 4.91zM251.72 419.94v-.2a39.37 39.37 0 0 0-41.89-32.2l-.85.07-2.41.8a1.83 1.83 0 0 0-1.25 1.73 1.81 1.81 0 0 0 1.25 1.73l1.95.65a83.22 83.22 0 0 1 25.73 14l15.42 12.33a1.59 1.59 0 0 0 .34.18z" transform="translate(-195.69 -201.41)"/>
    <rect class="cls-5" x="47.23" y="223.59" width="30.36" height="45.71" rx="2.73" ry="2.73"/>
  </g>
  <g id="chairs">
    <path class="cls-5" d="M457.89 407.06a12 12 0 0 1 12-12h12.49a12 12 0 0 1 12 12v11.32H498v-12.57a14.44 14.44 0 0 0-14.41-14.4h-15a14.44 14.44 0 0 0-14.4 14.4v12.57h3.65zM394.7 407.06a12 12 0 0 1 12-12h12.49a12 12 0 0 1 12 12v11.32h3.65v-12.57a14.44 14.44 0 0 0-14.4-14.4h-15a14.44 14.44 0 0 0-14.4 14.4v12.57h3.65zM331.51 407.06a12 12 0 0 1 12-12H356a12 12 0 0 1 12 12v11.32h3.65v-12.57a14.44 14.44 0 0 0-14.4-14.4h-15a14.44 14.44 0 0 0-14.4 14.4v12.57h3.65z" transform="translate(-195.69 -201.41)"/>
    <path fill="#d7d7d7" d="M130.07 74.28h174.42v103.97H130.07z"/>
    <path fill="#b6dfe6" d="M135.58 79.07h163.4v93.77h-163.4z"/>
    <circle cx="270.65" cy="117.08" r="10.24" fill="#ffe164"/>
    <path class="cls-9" d="M364.13 312.66a4.27 4.27 0 0 0-.87.08 3.58 3.58 0 0 0-1.89-2.5 3.64 3.64 0 0 0-3.14-.05 4.8 4.8 0 0 0-9 3.27 4 4 0 0 0 .12 8h14.8a4.4 4.4 0 0 0 0-8.8zM461.94 323a4.21 4.21 0 0 0-.87.09 3.59 3.59 0 0 0-5-2.55 4.8 4.8 0 0 0-9 3.27 4 4 0 0 0 .12 8h14.8a4.4 4.4 0 0 0 0-8.8zM416.7 318a7.37 7.37 0 0 0-1.32.12 5 5 0 0 0-2.86-3.39 5.94 5.94 0 0 0-4.73-.08c-1.36-3.38-5.52-5.12-9.27-3.9s-5.7 5-4.33 8.35c-3.3.09-5.9 2.54-5.85 5.5s2.73 5.34 6 5.35h22.36c3.66 0 6.64-2.68 6.64-6s-2.98-5.95-6.64-5.95z" transform="translate(-195.69 -201.41)"/>
  </g>
  <g id="persons">
    <path class="cls-10" d="M483 402.89q-.39 4.22-.8 8.43c-1.79-1.3-3.89-.55-5.83-.87-2-3.9-2-8.19-1.67-12.3a207.46 207.46 0 0 0 .19-21.88c-.08-2.28-.2-4.5 1.45-6.35 7-1.55 11.88 2.57 11 9.33-.22 1.83-.72 3.7.27 5.38 2.18 3.72.95 6.91-1.73 9.54a9 9 0 0 0-2.88 8.72z" transform="translate(-195.69 -201.41)"/>
    <path class="cls-11" d="M477.24 369.49a14.38 14.38 0 0 0-1.1 6.85c.09 7.44.64 14.89-.41 22.38-.53 3.79 1 7.77.59 11.73-2.36.17-5.53-.86-5.13 3.43-1.42-3.75-.57-7.71-1.08-11.55-1.05-3.17-1.54-6.49-3.88-9.22-1.31-1.53.18-4-.47-5.77-3.11-8.54 1.33-13.86 7.48-18.58.44-.34.74-.88 1.22-1.17 2.26-1.34 3.21-.71 2.78 1.9z" transform="translate(-195.69 -201.41)"/>
    <path d="M477.24 369.49c-.67-1.75-1.16-3.58-2.89-.53a13.87 13.87 0 0 1-5.69 5.54c-2.87 1.48-3.47 3.76-2.6 6.76.94 3.25 1.8 6.55.61 10a2.44 2.44 0 0 0 1.19 2.92c3.07 2.13 3.29 5 2.25 8.19-5.43.48-10 3.32-14.88 5.34-3.36-4.17-4.12-8.56-1.26-13.33 1.53-2.54 1.18-5-.17-7.61-3.09-6.08-2.62-8.65 2.2-13.64a16.58 16.58 0 0 0 4.22-8.62c1.11-5.51 4.64-8.73 10-9.55a56.25 56.25 0 0 1 11.81-.61c5.23.33 10.46 6.3 11.23 12.8a18 18 0 0 0 3.88 9.6c2.46 3.08 2.71 6.76 1.43 10.48-.57 1.67-1 3.36.17 4.86 4.62 5.92 3 11-2 15.65-4.48-2-8.66-4.79-13.82-4.81-2.1-2.69-2.28-5.23.49-7.65a17 17 0 0 0 3.84-5c.67-1.3 1.21-2.53-.09-3.83-1.95-1.95-1.73-4.24-1.13-6.71 1.37-5.54.48-6.85-5-8.39a23.32 23.32 0 0 1-3.79-1.86z" transform="translate(-195.69 -201.41)" fill="#471b18"/>
    <path d="M471.19 413.89c.24 2.25.44 4.52.67 6.78h9.49c.3-3.11.52-6.23.8-9.35a9.41 9.41 0 0 1-1-3.62h-9.58a14.63 14.63 0 0 1-.4 2.14c-.37 1.37-.7 2.7.02 4.05z" transform="translate(-195.69 -201.41)" fill="#ededed"/>
    <path class="cls-14" d="M465.66 407.7h5.9a11.66 11.66 0 0 0-.6-5.28c-.62-1.08-1.68-1-2.62-.83-4.89.9-9.57 2.27-13.11 6.08-2 2.57-3.51 5.34-3.65 8.68-.17 1.44-1.24 2.88-1.05 4.32h15.13z" transform="translate(-195.69 -201.41)"/>
    <path class="cls-14" d="M465.66 420.67h6.2c-.23-2.26-.43-4.53-.67-6.78-.72-1.35-.39-2.68 0-4.05a14.63 14.63 0 0 0 .4-2.14h-5.9z" transform="translate(-195.69 -201.41)"/>
    <path class="cls-15" d="M488.72 420.67h12.94a8.14 8.14 0 0 0-.62-4.31c-.64-3.28-1.66-6.36-4.27-8.66-3.19-3.85-10.38-6.29-14.22-4.83a7.61 7.61 0 0 0-1.41 4.83h7.58z" transform="translate(-195.69 -201.41)"/>
    <path class="cls-15" d="M481.35 420.67h7.37v-13h-7.58a9.41 9.41 0 0 0 1 3.62c-.27 3.15-.49 6.27-.79 9.38z" transform="translate(-195.69 -201.41)"/>
    <path d="M379.38 415.75c-1.25-11.62-9.49-15.07-19.38-16.6a18.49 18.49 0 0 0-2.09 2.73c-3.53 6.94-13.56 6.27-16.53-.87a16.71 16.71 0 0 0-1.25-2.11c-4.14.26-7.55 2.48-11.26 4-4.6 1.86-7.09 5.06-7.49 9.7a22.69 22.69 0 0 1-2 7.07H380a5.19 5.19 0 0 0-.62-3.92z" transform="translate(-195.69 -201.41)" fill="#14a2b0"/>
    <path d="M338.37 366c3.65-.9 7.2-2.2 10.79-3.33a3.63 3.63 0 0 1 .71-.65c2.57-1.4 5.29-4.09 7.71-3.84 2.83.3 2.67 4.7 4.23 7.09 2.33 3.58 3.43 3.68 5.36.19-.38-9.22-4.49-16.25-11-17.37s-16.11-.47-21.26 8.63c-1.8 3.16-1.05 6.42-2.36 9.39 1.98 2.34 3.98.33 5.82-.11z" transform="translate(-195.69 -201.41)" fill="#31586e"/>
    <path class="cls-10" d="M365.92 368.85c-1.37.55-2.52-.29-3.54-1.18-.38-.32-.62-.77-1-1.11-1.89-1.92-1.47-6.16-4.81-6.22-2.57 0-4.83 2.13-7.25 3.35a49.31 49.31 0 0 1-.13 18.91 42.32 42.32 0 0 1 4.77 1.1c7.41 2.63 7.46 2.64 11.1-4 .05-1.64 1.64-1.92 2.51-2.81 3.61-3.68 3.49-7.58-.43-11.41.13 1.29.29 2.76-1.22 3.37z" transform="translate(-195.69 -201.41)"/>
    <path class="cls-10" d="M361.81 365.25c-1.56-2.39-1.4-6.79-4.23-7.09-2.42-.25-5.14 2.44-7.71 3.84a3.63 3.63 0 0 0-.71.65c.07.35.12.7.19 1 2.42-1.22 4.68-3.39 7.25-3.35 3.34.06 2.92 4.3 4.81 6.22.35.34.59.79 1 1.11 1 .89 2.17 1.73 3.54 1.18s1.35-2.08 1.25-3.41c-1.96 3.53-3.06 3.43-5.39-.15z" transform="translate(-195.69 -201.41)"/>
    <path class="cls-11" d="M344.14 384.42a38.53 38.53 0 0 1 4.8-1.73 4.12 4.12 0 0 1-.43-3c1.11-5.23-.44-10.54.4-15.75a65.22 65.22 0 0 1-12.35 3.92c-1.62.37-3.72 1.25-4-1.74-3.84 3.52-4 7-.2 10.47 1.57 1.43 3.1 2.72 3.53 4.89 1.64 4.08 4.39 4.84 8.25 2.94z" transform="translate(-195.69 -201.41)"/>
    <path class="cls-11" d="M336.56 367.83a65.22 65.22 0 0 0 12.35-3.92c.07-.42.15-.84.25-1.26-3.59 1.13-7.14 2.43-10.79 3.33-1.84.46-3.84 2.47-5.79.11.26 2.99 2.36 2.11 3.98 1.74zM349.22 382.6a49.31 49.31 0 0 0 .13-18.91l-.28.15-.16.07c-.84 5.21.71 10.52-.4 15.75a4.12 4.12 0 0 0 .43 3l.28-.09z" transform="translate(-195.69 -201.41)"/>
    <path class="cls-11" d="M349.35 363.69c-.07-.34-.12-.69-.19-1-.1.42-.18.84-.25 1.26l.16-.07z" transform="translate(-195.69 -201.41)"/>
    <path class="cls-18" d="M356.9 392.83c4.81-3.09 9.32-6.38 8.19-13.17-2 7.17-4 8.14-11.07 5.46a24.17 24.17 0 0 1-4.59-1.8 3.35 3.35 0 0 1-.39-.47c-2.09 2.84-5.36 3.35-8.47 3.58s-4.72-1.8-4.66-5c-1.16 1.67-.64 3.12.13 4.89 1.46 3.42 4.67 4.53 7.32 6.4a19.36 19.36 0 0 0 13.54.11z" transform="translate(-195.69 -201.41)"/>
    <path class="cls-18" d="M354 383.7a42.32 42.32 0 0 0-4.77-1.1l-.18.25a3.35 3.35 0 0 0 .39.47 24.17 24.17 0 0 0 4.59 1.8c7.1 2.68 9 1.71 11.07-5.46-3.65 6.68-3.7 6.67-11.1 4.04zM340.57 386.43c3.11-.23 6.38-.74 8.47-3.58a1.4 1.4 0 0 1-.1-.16 38.53 38.53 0 0 0-4.8 1.73c-3.86 1.9-6.61 1.14-8.23-3-.06 3.21 1.52 5.25 4.66 5.01z" transform="translate(-195.69 -201.41)"/>
    <path class="cls-18" d="M349.22 382.6l-.28.09a1.4 1.4 0 0 0 .1.16l.18-.25z" transform="translate(-195.69 -201.41)"/>
    <path class="cls-19" d="M343.3 401.89c4.19 4.62 8.43 4.71 12.83.22 1.15-1.18 2.05-2.67 3.87-3-2.8-1.24-4.76-2.89-3.1-6.32-4.6 3.37-9.35 3.34-13.54-.09.25 2.75-.17 5.15-3.23 6.16 1.72.34 2.2 1.95 3.17 3.03z" transform="translate(-195.69 -201.41)"/>
    <path class="cls-19" d="M341.38 401c3 7.14 13 7.81 16.53.87a18.49 18.49 0 0 1 2.09-2.73c-1.82.29-2.72 1.78-3.87 3-4.4 4.49-8.64 4.4-12.83-.22-1-1.08-1.45-2.69-3.17-3a16.71 16.71 0 0 1 1.25 2.08zM356.9 392.83a19.36 19.36 0 0 1-13.54-.09c4.19 3.43 8.94 3.46 13.54.09z" transform="translate(-195.69 -201.41)"/>
    <path d="M433.92 366c-.14-.55-.29-1.1-.43-1.66-1.27-1.81-2.54-.38-3.8 0 .14-3.35-.21-5.83-1.09-7.69-1.76-3.75-3.89-4.51-7.43-2.43a37.5 37.5 0 0 1-8.1 3.69c-1.24.39-3.29.61-2 2.9a6.31 6.31 0 0 1 2.24 5.28c-.17 7.95.05 15.89-.3 23.85-.23 5.32-.47 10.86 1.6 16.05 2.12.91 3.05-.72 3.74-2.06 1.28-2.44 3.18-4.49 4.18-7.07-1.28-2-1.72-5.1-.39-6 6.21-4.12 6.59-12.05 11.66-16.77 3.07-2.6 3.2-5.31.12-8.09z" transform="translate(-195.69 -201.41)" fill="#e2b692"/>
    <path d="M414.32 391.69c.5-9.12 0-22.73.59-31.82.22-3.3-1.08-4.59-4.24-4.35-2.18-1.54-4.77 2.65-7.05 3.72-2.87 1.34-1.51 4.72-2.57 7-1.11-.8-1.28-3-3.35-2l-1.93 1.81c-3.82 2.69-2 5.36 0 8 2 2.1 3.91 4.07 4.69 7.26a11.22 11.22 0 0 0 4.44 6.89c3.29 2.13 3.91 5.07 2.62 8.59 1.25 3.26 3.4 6 5.12 9 1 1.78 1.23 1.66 3 .23-2.06-4.55-1.56-9.86-1.32-14.33z" transform="translate(-195.69 -201.41)" fill="#eec8a3"/>
    <path d="M410.61 360a22.79 22.79 0 0 1-4-.09c-2.63-.52-3.58.34-3.5 3.05a10.33 10.33 0 0 1-2.17 7c-1.68-1.85.16-5.3-3.27-5.67-1.67-14.73 10.2-24.53 24.83-20.29 6.39 1.83 10.19 7 10.92 15.45.15 1.65.06 3.31.07 5-1.76-.29-3 1.09-4.49 1.64-.18-1.95-.22-3.79-.55-5.58-1.2-6.64-2.77-7.45-8.07-3.95-3.02 1.92-6.56 2.17-9.77 3.44z" transform="translate(-195.69 -201.41)" fill="#262422"/>
    <path d="M426.66 407.31c-1.17-3-1-6.07-1.06-9.16 2.29 0 4.56 0 6.18 2.05-1 2.88-3.62 4.59-5.12 7.11z" transform="translate(-195.69 -201.41)" fill="#356379"/>
    <path class="cls-24" d="M426.66 407.31v1.57a11.59 11.59 0 0 0-1.15 1.91c4.2 3.7-.07 5.77-1.81 7.78l-.32.37h22.15l.35-.26c-.62-1.87-1.57-3.69-1.8-5.61-.91-7.41-5.4-11.23-12.28-12.87a15.36 15.36 0 0 0-5 5.32 10.83 10.83 0 0 0-.14 1.79zM402.77 414.86c-2.62-2.51 2-2.59.81-5.22-1.57-3.5-3.93-6.26-5.78-9.43-6 1.7-10.66 4.66-11.47 11.6a61.21 61.21 0 0 1-1.53 7.13h21.72c-1.21-1.4-2.42-2.8-3.75-4.08z" transform="translate(-195.69 -201.41)"/>
    <path class="cls-25" d="M425 408.56c-1.06-.65-1.85-2-3.5-2.27-1.25 4.2-2.45 8.45-3.78 12.65h4c2.46-2.79 4.5-5.75 3.28-10.38z" transform="translate(-195.69 -201.41)"/>
    <path class="cls-25" d="M230.95 207.47z"/>
    <path class="cls-25" d="M425 408.56c1.25 4.63-.79 7.59-3.24 10.38h1.63l.32-.37c1.74-2 6-4.08 1.81-7.78a11.59 11.59 0 0 1 1.15-1.91 2.21 2.21 0 0 1-1.67-.32z" transform="translate(-195.69 -201.41)"/>
    <path class="cls-26" d="M404.37 408.28c4.42-3.91 4.76.22 5.6 3.5.63 2.42 1.47 4.78 2.22 7.16h4.09c.87-2.82 1.69-5.66 2.62-8.46 1.69-5.08 3.05-5.78 6.5-2.75a4.68 4.68 0 0 0 .58-1c.26-.41.52-.82.79-1.23.33-2.54 1.16-5.14-1.17-7.37a3.45 3.45 0 0 0-3-1.24c-4.33 1.54-4.17 6.46-6.92 9.19-1.08 1.37-1.31.34-1.89-.53-2-2.94-2.45-7-6.21-8.68-1.81-.42-2.63.91-3.57 2v7.94a9.16 9.16 0 0 1 .36 1.47z" transform="translate(-195.69 -201.41)"/>
    <path class="cls-26" d="M230.95 207.47z"/>
    <path class="cls-26" d="M425.4 407.73c.39.34.8.71 1.24 1.15v-1.57a10.83 10.83 0 0 1 .11-1.79c-.27.41-.53.82-.79 1.23a4.68 4.68 0 0 1-.56.98zM404.37 408.28a9.16 9.16 0 0 0-.4-1.41v1.76a4.17 4.17 0 0 1 .4-.35z" transform="translate(-195.69 -201.41)"/>
    <path class="cls-26" d="M421.47 406.29c1.65.29 2.44 1.62 3.5 2.27a2.86 2.86 0 0 1 .43-.83c-3.45-3-4.81-2.33-6.5 2.75-.93 2.8-1.75 5.64-2.62 8.46h1.41c1.31-4.2 2.53-8.45 3.78-12.65z" transform="translate(-195.69 -201.41)"/>
    <path class="cls-26" d="M426.64 408.88c-.44-.44-.85-.81-1.24-1.15a2.86 2.86 0 0 0-.43.83 2.21 2.21 0 0 0 1.67.32z" transform="translate(-195.69 -201.41)"/>
    <path class="cls-27" d="M403 405c-.5-2.09-1.09-4.18.94-6.09-2.53-1.84-4.27.09-6.17 1.28A16.25 16.25 0 0 1 403 405zM408.85 412.61c-.68-1.89-.86-4.08-3.8-3.44a2 2 0 0 1-.54 0 11.53 11.53 0 0 1-.15 3.43c-.36 1.92.89 3.09 1.84 4.37a23 23 0 0 0 1.61 1.94h2.9c-.61-2.08-1.13-4.23-1.86-6.3z" transform="translate(-195.69 -201.41)"/>
    <path class="cls-27" d="M402.77 414.86c1.33 1.28 2.54 2.68 3.75 4.08h1.29a23 23 0 0 1-1.61-1.94c-.95-1.28-2.2-2.45-1.84-4.37a11.53 11.53 0 0 0 .15-3.43 1.12 1.12 0 0 1-1.12-1.32A9.13 9.13 0 0 0 403 405a16.25 16.25 0 0 0-5.23-4.81c1.85 3.17 4.21 5.93 5.78 9.43 1.2 2.65-3.4 2.73-.78 5.24zM405.05 409.17c2.94-.64 3.12 1.55 3.8 3.44.73 2.07 1.25 4.22 1.86 6.33h1.48c-.75-2.38-1.59-4.74-2.22-7.16-.84-3.28-1.18-7.41-5.6-3.5a9.27 9.27 0 0 1 .14.92 2 2 0 0 0 .54-.03zM403 405a9.75 9.75 0 0 1 .94 1.85v-7.94c-2 1.93-1.41 4.02-.94 6.09z" transform="translate(-195.69 -201.41)"/>
    <path class="cls-27" d="M404 408.63v-1.76a9.75 9.75 0 0 0-1-1.87 9.13 9.13 0 0 1 .36 2.86 1.12 1.12 0 0 0 1.12 1.32 9.27 9.27 0 0 0-.14-.92 4.17 4.17 0 0 0-.34.37z" transform="translate(-195.69 -201.41)"/>
  </g>
  <g id="hand" data-name="Laag 8">
    <path transform="rotate(32.84 617.448828 -21.2165)" fill="#173b3d" d="M373.12 406.06h.93v11.01h-.93z"/>
    <circle class="cls-11" cx="175.2" cy="215.58" r="4.17"/>
  </g>
  <g id="items">
    <path d="M323.37 406.25h-8c-.44 0-.8.44-.91 1h9.83c-.12-.56-.48-1-.92-1z" transform="translate(-195.69 -201.41)" fill="#f9f9f9"/>
    <path d="M324.13 407.27h-9.42a.5.5 0 0 0 0 .12l.09.57 1.75 10.65H322l2-10.61.11-.61a.43.43 0 0 0 .02-.12z" transform="translate(-195.69 -201.41)" fill="#9a8b6a"/>
    <path d="M514 387.56l-6.59 26.89a.81.81 0 0 1-.77.66h-34.4a.85.85 0 0 0-.8.89v2a.85.85 0 0 0 .8.89h35.17a.81.81 0 0 0 .77-.66l.74-3 6.65-27.15A.9.9 0 0 0 515 387a.8.8 0 0 0-1 .56z" transform="translate(-195.69 -201.41)" fill="#a3a3a3"/>
    <path fill="#848484" d="M277.29 214.41h9.61v.57h-9.61z"/>
    <path class="cls-9" d="M239.7 215.79h27.09v1.34H239.7zM239.7 213.58h27.09v1.34H239.7z"/>
    <path class="cls-9" d="M239.93 214.74h27.09v1.34h-27.09zM239.59 212.51h27.09v1.34h-27.09zM153.62 216.15h27.09v1.34h-27.09z"/>
    <path d="M575.5 446.58h-9v-1a2 2 0 0 0-2-2H556a2 2 0 0 0-2 2v1h-9a3.45 3.45 0 0 0-3.44 3.44v18.07a3.45 3.45 0 0 0 3.44 3.44h30.5a3.45 3.45 0 0 0 3.45-3.44V450a3.45 3.45 0 0 0-3.45-3.42zm-19.92-.15a1.64 1.64 0 0 1 1.64-1.63h6.09a1.63 1.63 0 0 1 1.63 1.63v.15h-9.36z" transform="translate(-195.69 -201.41)" fill="#cfcece"/>
  </g>
  <g id="desk">
    <path class="cls-5" d="M562.94 469.41c-.05 1.42-.09 2.84-.15 4.24h4c.06-1.4.11-2.82.15-4.24z" transform="translate(-195.69 -201.41)"/>
    <text transform="translate(16.73 56.33)" font-size="41.4" font-family="BrandoSans-SemiBold,Brando Sans" font-weight="700" letter-spacing="-.05em" fill="#2d2d2d">
      C<tspan x="22.89" y="0" letter-spacing="-.04em">on</tspan><tspan x="66.32" y="0" letter-spacing="-.04em">v</tspan><tspan class="cls-37" x="84.78" y="0">e</tspan><tspan class="cls-38" x="104.77" y="0">r</tspan><tspan class="cls-37" x="118.68" y="0">en</tspan><tspan x="160.7" y="0">c</tspan><tspan class="cls-37" x="177.92" y="0">e on</tspan><tspan class="cls-38" x="249.04" y="0">e</tspan><tspan class="cls-37" x="268.83" y="0">.</tspan>
    </text>
    <path class="cls-39" d="M302.21 316.33a.43.43 0 0 1 0 .11zM292.7 316.33v.12-.12zM302.07 317.05a.85.85 0 0 0 .14-.45v-.05a.45.45 0 0 0 0-.11zM292.7 316.55v.05a1 1 0 0 0 .11.42l-.09-.57s-.02.07-.02.1z" transform="translate(-195.69 -201.41)"/>
    <path class="cls-5" d="M318.84 268.02V216.97H112.69V268.02H0v5.35h118.03V222.32H313.5V273.37H444v-5.35H318.84z"/>
  </g>
  <g id="lamp">
    <path class="cls-5" d="M576.86 371.1a16.9 16.9 0 0 0 4.77-9.42l2.71-1.5a6.68 6.68 0 1 0-6.46-11.7l-3.06 1.69a16.87 16.87 0 0 0-9-.89 22.21 22.21 0 0 0-13.1 7.23 44.27 44.27 0 0 0 4.1 10.05 40.84 40.84 0 0 0 8.47 10.92 22.41 22.41 0 0 0 11.57-6.38z" transform="translate(-195.69 -201.41)"/>
    <path class="cls-5" d="M613.07 467.16H592c.08-3.42.11-6.89.11-10.41 0-53.61-8.55-97.07-19.1-97.07a4.23 4.23 0 0 0-2 .51c9.62 5 17.13 46.34 17.13 96.56q0 5.28-.12 10.41h-17.71a4.15 4.15 0 0 0-4.13 4.14v.11h51v-.11a4.15 4.15 0 0 0-4.11-4.14z" transform="translate(-195.69 -201.41)"/>
  </g>
  <path fill="#ffe98a" d="M357.03 155.1l-244.34 61.87h206.15l50.77-40.9-12.58-20.97z" id="light"/>
</svg>
